<?xml version="1.0" encoding="utf-8" standalone="no"?>
<!DOCTYPE svg PUBLIC "-//W3C//DTD SVG 1.1//EN"
  "http://www.w3.org/Graphics/SVG/1.1/DTD/svg11.dtd">
<svg xmlns:xlink="http://www.w3.org/1999/xlink" width="252pt" height="230.4pt" viewBox="0 0 252 230.4" xmlns="http://www.w3.org/2000/svg" version="1.1">
 <metadata>
  <rdf:RDF xmlns:dc="http://purl.org/dc/elements/1.1/" xmlns:cc="http://creativecommons.org/ns#" xmlns:rdf="http://www.w3.org/1999/02/22-rdf-syntax-ns#">
   <cc:Work>
    <dc:type rdf:resource="http://purl.org/dc/dcmitype/StillImage"/>
    <dc:date>2025-01-31T12:59:39.006626</dc:date>
    <dc:format>image/svg+xml</dc:format>
    <dc:creator>
     <cc:Agent>
      <dc:title>Matplotlib v3.7.5, https://matplotlib.org/</dc:title>
     </cc:Agent>
    </dc:creator>
   </cc:Work>
  </rdf:RDF>
 </metadata>
 <defs>
  <style type="text/css">*{stroke-linejoin: round; stroke-linecap: butt}</style>
 </defs>
 <g id="figure_1">
  <g id="patch_1">
   <path d="M 0 230.4 
L 252 230.4 
L 252 0 
L 0 0 
z
" style="fill: #ffffff"/>
  </g>
  <g id="axes_1">
   <g id="patch_2">
    <path d="M 63 205.056 
L 226.8 205.056 
L 226.8 119.808 
L 63 119.808 
z
" style="fill: #ffffff"/>
   </g>
   <g id="line2d_1">
    <path d="M 63 119.808 
L 226.8 119.808 
" style="fill: none; stroke: #d3d3d3; stroke-linecap: square"/>
   </g>
   <g id="line2d_2">
    <path d="M 63 119.808 
L 226.8 119.808 
" style="fill: none; stroke: #d3d3d3; stroke-linecap: square"/>
   </g>
   <g id="matplotlib.axis_1">
    <g id="xtick_1">
     <g id="line2d_3">
      <defs>
       <path id="m5dd1215647" d="M 0 0 
L 0 -3.5 
" style="stroke: #000000; stroke-width: 0.8"/>
      </defs>
      <g>
       <use xlink:href="#m5dd1215647" x="79.38" y="205.056" style="stroke: #000000; stroke-width: 0.8"/>
      </g>
     </g>
     <g id="text_1">
      <!-- V1 -->
      <g transform="translate(72.778437 216.154438) scale(0.1 -0.1)">
       <defs>
        <path id="DejaVuSans-56" d="M 1831 0 
L 50 4666 
L 709 4666 
L 2188 738 
L 3669 4666 
L 4325 4666 
L 2547 0 
L 1831 0 
z
" transform="scale(0.015625)"/>
        <path id="DejaVuSans-31" d="M 794 531 
L 1825 531 
L 1825 4091 
L 703 3866 
L 703 4441 
L 1819 4666 
L 2450 4666 
L 2450 531 
L 3481 531 
L 3481 0 
L 794 0 
L 794 531 
z
" transform="scale(0.015625)"/>
       </defs>
       <use xlink:href="#DejaVuSans-56"/>
       <use xlink:href="#DejaVuSans-31" x="68.408203"/>
      </g>
     </g>
    </g>
    <g id="xtick_2">
     <g id="line2d_4">
      <g>
       <use xlink:href="#m5dd1215647" x="112.14" y="205.056" style="stroke: #000000; stroke-width: 0.8"/>
      </g>
     </g>
     <g id="text_2">
      <!-- V2 -->
      <g transform="translate(105.538438 216.154438) scale(0.1 -0.1)">
       <defs>
        <path id="DejaVuSans-32" d="M 1228 531 
L 3431 531 
L 3431 0 
L 469 0 
L 469 531 
Q 828 903 1448 1529 
Q 2069 2156 2228 2338 
Q 2531 2678 2651 2914 
Q 2772 3150 2772 3378 
Q 2772 3750 2511 3984 
Q 2250 4219 1831 4219 
Q 1534 4219 1204 4116 
Q 875 4013 500 3803 
L 500 4441 
Q 881 4594 1212 4672 
Q 1544 4750 1819 4750 
Q 2544 4750 2975 4387 
Q 3406 4025 3406 3419 
Q 3406 3131 3298 2873 
Q 3191 2616 2906 2266 
Q 2828 2175 2409 1742 
Q 1991 1309 1228 531 
z
" transform="scale(0.015625)"/>
       </defs>
       <use xlink:href="#DejaVuSans-56"/>
       <use xlink:href="#DejaVuSans-32" x="68.408203"/>
      </g>
     </g>
    </g>
    <g id="xtick_3">
     <g id="line2d_5">
      <g>
       <use xlink:href="#m5dd1215647" x="144.9" y="205.056" style="stroke: #000000; stroke-width: 0.8"/>
      </g>
     </g>
     <g id="text_3">
      <!-- V3 -->
      <g transform="translate(138.298438 216.154438) scale(0.1 -0.1)">
       <defs>
        <path id="DejaVuSans-33" d="M 2597 2516 
Q 3050 2419 3304 2112 
Q 3559 1806 3559 1356 
Q 3559 666 3084 287 
Q 2609 -91 1734 -91 
Q 1441 -91 1130 -33 
Q 819 25 488 141 
L 488 750 
Q 750 597 1062 519 
Q 1375 441 1716 441 
Q 2309 441 2620 675 
Q 2931 909 2931 1356 
Q 2931 1769 2642 2001 
Q 2353 2234 1838 2234 
L 1294 2234 
L 1294 2753 
L 1863 2753 
Q 2328 2753 2575 2939 
Q 2822 3125 2822 3475 
Q 2822 3834 2567 4026 
Q 2313 4219 1838 4219 
Q 1578 4219 1281 4162 
Q 984 4106 628 3988 
L 628 4550 
Q 988 4650 1302 4700 
Q 1616 4750 1894 4750 
Q 2613 4750 3031 4423 
Q 3450 4097 3450 3541 
Q 3450 3153 3228 2886 
Q 3006 2619 2597 2516 
z
" transform="scale(0.015625)"/>
       </defs>
       <use xlink:href="#DejaVuSans-56"/>
       <use xlink:href="#DejaVuSans-33" x="68.408203"/>
      </g>
     </g>
    </g>
    <g id="xtick_4">
     <g id="line2d_6">
      <g>
       <use xlink:href="#m5dd1215647" x="177.66" y="205.056" style="stroke: #000000; stroke-width: 0.8"/>
      </g>
     </g>
     <g id="text_4">
      <!-- V4 -->
      <g transform="translate(171.058438 216.154438) scale(0.1 -0.1)">
       <defs>
        <path id="DejaVuSans-34" d="M 2419 4116 
L 825 1625 
L 2419 1625 
L 2419 4116 
z
M 2253 4666 
L 3047 4666 
L 3047 1625 
L 3713 1625 
L 3713 1100 
L 3047 1100 
L 3047 0 
L 2419 0 
L 2419 1100 
L 313 1100 
L 313 1709 
L 2253 4666 
z
" transform="scale(0.015625)"/>
       </defs>
       <use xlink:href="#DejaVuSans-56"/>
       <use xlink:href="#DejaVuSans-34" x="68.408203"/>
      </g>
     </g>
    </g>
    <g id="xtick_5">
     <g id="line2d_7">
      <g>
       <use xlink:href="#m5dd1215647" x="210.42" y="205.056" style="stroke: #000000; stroke-width: 0.8"/>
      </g>
     </g>
     <g id="text_5">
      <!-- IT -->
      <g transform="translate(205.891094 216.154438) scale(0.1 -0.1)">
       <defs>
        <path id="DejaVuSans-49" d="M 628 4666 
L 1259 4666 
L 1259 0 
L 628 0 
L 628 4666 
z
" transform="scale(0.015625)"/>
        <path id="DejaVuSans-54" d="M -19 4666 
L 3928 4666 
L 3928 4134 
L 2272 4134 
L 2272 0 
L 1638 0 
L 1638 4134 
L -19 4134 
L -19 4666 
z
" transform="scale(0.015625)"/>
       </defs>
       <use xlink:href="#DejaVuSans-49"/>
       <use xlink:href="#DejaVuSans-54" x="29.492188"/>
      </g>
     </g>
    </g>
   </g>
   <g id="matplotlib.axis_2">
    <g id="ytick_1">
     <g id="line2d_8">
      <defs>
       <path id="m7bb9e89582" d="M 0 0 
L 3.5 0 
" style="stroke: #000000; stroke-width: 0.8"/>
      </defs>
      <g>
       <use xlink:href="#m7bb9e89582" x="63" y="205.056" style="stroke: #000000; stroke-width: 0.8"/>
      </g>
     </g>
     <g id="text_6">
      <!-- 0.0 -->
      <g transform="translate(43.596875 208.855219) scale(0.1 -0.1)">
       <defs>
        <path id="DejaVuSans-30" d="M 2034 4250 
Q 1547 4250 1301 3770 
Q 1056 3291 1056 2328 
Q 1056 1369 1301 889 
Q 1547 409 2034 409 
Q 2525 409 2770 889 
Q 3016 1369 3016 2328 
Q 3016 3291 2770 3770 
Q 2525 4250 2034 4250 
z
M 2034 4750 
Q 2819 4750 3233 4129 
Q 3647 3509 3647 2328 
Q 3647 1150 3233 529 
Q 2819 -91 2034 -91 
Q 1250 -91 836 529 
Q 422 1150 422 2328 
Q 422 3509 836 4129 
Q 1250 4750 2034 4750 
z
" transform="scale(0.015625)"/>
        <path id="DejaVuSans-2e" d="M 684 794 
L 1344 794 
L 1344 0 
L 684 0 
L 684 794 
z
" transform="scale(0.015625)"/>
       </defs>
       <use xlink:href="#DejaVuSans-30"/>
       <use xlink:href="#DejaVuSans-2e" x="63.623047"/>
       <use xlink:href="#DejaVuSans-30" x="95.410156"/>
      </g>
     </g>
    </g>
    <g id="ytick_2">
     <g id="line2d_9">
      <g>
       <use xlink:href="#m7bb9e89582" x="63" y="162.432" style="stroke: #000000; stroke-width: 0.8"/>
      </g>
     </g>
     <g id="text_7">
      <!-- 0.5 -->
      <g transform="translate(43.596875 166.231219) scale(0.1 -0.1)">
       <defs>
        <path id="DejaVuSans-35" d="M 691 4666 
L 3169 4666 
L 3169 4134 
L 1269 4134 
L 1269 2991 
Q 1406 3038 1543 3061 
Q 1681 3084 1819 3084 
Q 2600 3084 3056 2656 
Q 3513 2228 3513 1497 
Q 3513 744 3044 326 
Q 2575 -91 1722 -91 
Q 1428 -91 1123 -41 
Q 819 9 494 109 
L 494 744 
Q 775 591 1075 516 
Q 1375 441 1709 441 
Q 2250 441 2565 725 
Q 2881 1009 2881 1497 
Q 2881 1984 2565 2268 
Q 2250 2553 1709 2553 
Q 1456 2553 1204 2497 
Q 953 2441 691 2322 
L 691 4666 
z
" transform="scale(0.015625)"/>
       </defs>
       <use xlink:href="#DejaVuSans-30"/>
       <use xlink:href="#DejaVuSans-2e" x="63.623047"/>
       <use xlink:href="#DejaVuSans-35" x="95.410156"/>
      </g>
     </g>
    </g>
    <g id="ytick_3">
     <g id="line2d_10">
      <g>
       <use xlink:href="#m7bb9e89582" x="63" y="119.808" style="stroke: #000000; stroke-width: 0.8"/>
      </g>
     </g>
     <g id="text_8">
      <!-- 1.0 -->
      <g transform="translate(43.596875 123.607219) scale(0.1 -0.1)">
       <use xlink:href="#DejaVuSans-31"/>
       <use xlink:href="#DejaVuSans-2e" x="63.623047"/>
       <use xlink:href="#DejaVuSans-30" x="95.410156"/>
      </g>
     </g>
    </g>
    <g id="text_9">
     <!-- OCI -->
     <g transform="translate(37.517187 171.334344) rotate(-90) scale(0.1 -0.1)">
      <defs>
       <path id="DejaVuSans-4f" d="M 2522 4238 
Q 1834 4238 1429 3725 
Q 1025 3213 1025 2328 
Q 1025 1447 1429 934 
Q 1834 422 2522 422 
Q 3209 422 3611 934 
Q 4013 1447 4013 2328 
Q 4013 3213 3611 3725 
Q 3209 4238 2522 4238 
z
M 2522 4750 
Q 3503 4750 4090 4092 
Q 4678 3434 4678 2328 
Q 4678 1225 4090 567 
Q 3503 -91 2522 -91 
Q 1538 -91 948 565 
Q 359 1222 359 2328 
Q 359 3434 948 4092 
Q 1538 4750 2522 4750 
z
" transform="scale(0.015625)"/>
       <path id="DejaVuSans-43" d="M 4122 4306 
L 4122 3641 
Q 3803 3938 3442 4084 
Q 3081 4231 2675 4231 
Q 1875 4231 1450 3742 
Q 1025 3253 1025 2328 
Q 1025 1406 1450 917 
Q 1875 428 2675 428 
Q 3081 428 3442 575 
Q 3803 722 4122 1019 
L 4122 359 
Q 3791 134 3420 21 
Q 3050 -91 2638 -91 
Q 1578 -91 968 557 
Q 359 1206 359 2328 
Q 359 3453 968 4101 
Q 1578 4750 2638 4750 
Q 3056 4750 3426 4639 
Q 3797 4528 4122 4306 
z
" transform="scale(0.015625)"/>
      </defs>
      <use xlink:href="#DejaVuSans-4f"/>
      <use xlink:href="#DejaVuSans-43" x="78.710938"/>
      <use xlink:href="#DejaVuSans-49" x="148.535156"/>
     </g>
    </g>
   </g>
   <g id="LineCollection_1">
    <path d="M 79.38 138.142094 
L 79.38 113.745515 
" style="fill: none; stroke: #7f7f7f"/>
    <path d="M 112.14 151.541483 
L 112.14 117.478562 
" style="fill: none; stroke: #7f7f7f"/>
    <path d="M 144.9 156.28633 
L 144.9 116.256829 
" style="fill: none; stroke: #7f7f7f"/>
    <path d="M 177.66 118.584646 
L 177.66 56.371183 
" style="fill: none; stroke: #7f7f7f"/>
    <path d="M 210.42 137.76324 
L 210.42 1.322022 
" style="fill: none; stroke: #7f7f7f"/>
   </g>
   <g id="line2d_11">
    <defs>
     <path id="m8a3e965de5" d="M 3 0 
L -3 -0 
" style="stroke: #7f7f7f"/>
    </defs>
    <g>
     <use xlink:href="#m8a3e965de5" x="79.38" y="138.142094" style="fill: #7f7f7f; stroke: #7f7f7f"/>
     <use xlink:href="#m8a3e965de5" x="112.14" y="151.541483" style="fill: #7f7f7f; stroke: #7f7f7f"/>
     <use xlink:href="#m8a3e965de5" x="144.9" y="156.28633" style="fill: #7f7f7f; stroke: #7f7f7f"/>
     <use xlink:href="#m8a3e965de5" x="177.66" y="118.584646" style="fill: #7f7f7f; stroke: #7f7f7f"/>
     <use xlink:href="#m8a3e965de5" x="210.42" y="137.76324" style="fill: #7f7f7f; stroke: #7f7f7f"/>
    </g>
   </g>
   <g id="line2d_12">
    <g>
     <use xlink:href="#m8a3e965de5" x="79.38" y="113.745515" style="fill: #7f7f7f; stroke: #7f7f7f"/>
     <use xlink:href="#m8a3e965de5" x="112.14" y="117.478562" style="fill: #7f7f7f; stroke: #7f7f7f"/>
     <use xlink:href="#m8a3e965de5" x="144.9" y="116.256829" style="fill: #7f7f7f; stroke: #7f7f7f"/>
     <use xlink:href="#m8a3e965de5" x="177.66" y="56.371183" style="fill: #7f7f7f; stroke: #7f7f7f"/>
     <use xlink:href="#m8a3e965de5" x="210.42" y="1.322022" style="fill: #7f7f7f; stroke: #7f7f7f"/>
    </g>
   </g>
   <g id="LineCollection_2">
    <path d="M 82.656 142.02104 
L 82.656 119.930215 
" style="fill: none; stroke: #98df8a"/>
    <path d="M 115.416 138.194154 
L 115.416 120.69589 
" style="fill: none; stroke: #98df8a"/>
    <path d="M 148.176 152.733474 
L 148.176 126.40285 
" style="fill: none; stroke: #98df8a"/>
    <path d="M 180.936 143.572167 
L 180.936 102.628991 
" style="fill: none; stroke: #98df8a"/>
    <path d="M 213.696 132.458477 
L 213.696 88.515903 
" style="fill: none; stroke: #98df8a"/>
   </g>
   <g id="line2d_13">
    <defs>
     <path id="m83394e3c36" d="M 3 0 
L -3 -0 
" style="stroke: #98df8a"/>
    </defs>
    <g>
     <use xlink:href="#m83394e3c36" x="82.656" y="142.02104" style="fill: #98df8a; stroke: #98df8a"/>
     <use xlink:href="#m83394e3c36" x="115.416" y="138.194154" style="fill: #98df8a; stroke: #98df8a"/>
     <use xlink:href="#m83394e3c36" x="148.176" y="152.733474" style="fill: #98df8a; stroke: #98df8a"/>
     <use xlink:href="#m83394e3c36" x="180.936" y="143.572167" style="fill: #98df8a; stroke: #98df8a"/>
     <use xlink:href="#m83394e3c36" x="213.696" y="132.458477" style="fill: #98df8a; stroke: #98df8a"/>
    </g>
   </g>
   <g id="line2d_14">
    <g>
     <use xlink:href="#m83394e3c36" x="82.656" y="119.930215" style="fill: #98df8a; stroke: #98df8a"/>
     <use xlink:href="#m83394e3c36" x="115.416" y="120.69589" style="fill: #98df8a; stroke: #98df8a"/>
     <use xlink:href="#m83394e3c36" x="148.176" y="126.40285" style="fill: #98df8a; stroke: #98df8a"/>
     <use xlink:href="#m83394e3c36" x="180.936" y="102.628991" style="fill: #98df8a; stroke: #98df8a"/>
     <use xlink:href="#m83394e3c36" x="213.696" y="88.515903" style="fill: #98df8a; stroke: #98df8a"/>
    </g>
   </g>
   <g id="line2d_15">
    <defs>
     <path id="mec604dbf80" d="M 0 1.25 
C 0.331504 1.25 0.649475 1.118292 0.883883 0.883883 
C 1.118292 0.649475 1.25 0.331504 1.25 0 
C 1.25 -0.331504 1.118292 -0.649475 0.883883 -0.883883 
C 0.649475 -1.118292 0.331504 -1.25 0 -1.25 
C -0.331504 -1.25 -0.649475 -1.118292 -0.883883 -0.883883 
C -1.118292 -0.649475 -1.25 -0.331504 -1.25 0 
C -1.25 0.331504 -1.118292 0.649475 -0.883883 0.883883 
C -0.649475 1.118292 -0.331504 1.25 0 1.25 
z
" style="stroke: #7f7f7f"/>
    </defs>
    <g>
     <use xlink:href="#mec604dbf80" x="79.38" y="125.943805" style="fill: #7f7f7f; stroke: #7f7f7f"/>
     <use xlink:href="#mec604dbf80" x="112.14" y="134.510023" style="fill: #7f7f7f; stroke: #7f7f7f"/>
     <use xlink:href="#mec604dbf80" x="144.9" y="136.27158" style="fill: #7f7f7f; stroke: #7f7f7f"/>
     <use xlink:href="#mec604dbf80" x="177.66" y="87.477914" style="fill: #7f7f7f; stroke: #7f7f7f"/>
     <use xlink:href="#mec604dbf80" x="210.42" y="69.542631" style="fill: #7f7f7f; stroke: #7f7f7f"/>
    </g>
   </g>
   <g id="line2d_16">
    <defs>
     <path id="mf3fdd6ddd1" d="M 0 1.25 
C 0.331504 1.25 0.649475 1.118292 0.883883 0.883883 
C 1.118292 0.649475 1.25 0.331504 1.25 0 
C 1.25 -0.331504 1.118292 -0.649475 0.883883 -0.883883 
C 0.649475 -1.118292 0.331504 -1.25 0 -1.25 
C -0.331504 -1.25 -0.649475 -1.118292 -0.883883 -0.883883 
C -1.118292 -0.649475 -1.25 -0.331504 -1.25 0 
C -1.25 0.331504 -1.118292 0.649475 -0.883883 0.883883 
C -0.649475 1.118292 -0.331504 1.25 0 1.25 
z
" style="stroke: #98df8a"/>
    </defs>
    <g>
     <use xlink:href="#mf3fdd6ddd1" x="82.656" y="130.975628" style="fill: #98df8a; stroke: #98df8a"/>
     <use xlink:href="#mf3fdd6ddd1" x="115.416" y="129.445022" style="fill: #98df8a; stroke: #98df8a"/>
     <use xlink:href="#mf3fdd6ddd1" x="148.176" y="139.568162" style="fill: #98df8a; stroke: #98df8a"/>
     <use xlink:href="#mf3fdd6ddd1" x="180.936" y="123.100579" style="fill: #98df8a; stroke: #98df8a"/>
     <use xlink:href="#mf3fdd6ddd1" x="213.696" y="110.48719" style="fill: #98df8a; stroke: #98df8a"/>
    </g>
   </g>
   <g id="patch_3">
    <path d="M 63 205.056 
L 63 119.808 
" style="fill: none; stroke: #000000; stroke-width: 0.8; stroke-linejoin: miter; stroke-linecap: square"/>
   </g>
   <g id="patch_4">
    <path d="M 63 205.056 
L 226.8 205.056 
" style="fill: none; stroke: #000000; stroke-width: 0.8; stroke-linejoin: miter; stroke-linecap: square"/>
   </g>
   <g id="line2d_17">
    <path d="M 79.38 125.943805 
L 112.14 134.510023 
L 144.9 136.27158 
L 177.66 87.477914 
L 210.42 69.542631 
" style="fill: none; stroke: #7f7f7f; stroke-linecap: square"/>
   </g>
   <g id="line2d_18">
    <path d="M 82.656 130.975628 
L 115.416 129.445022 
L 148.176 139.568162 
L 180.936 123.100579 
L 213.696 110.48719 
" style="fill: none; stroke: #98df8a; stroke-linecap: square"/>
   </g>
  </g>
 </g>
</svg>
