<?xml version="1.0" encoding="utf-8" standalone="no"?>
<!DOCTYPE svg PUBLIC "-//W3C//DTD SVG 1.1//EN"
  "http://www.w3.org/Graphics/SVG/1.1/DTD/svg11.dtd">
<svg xmlns:xlink="http://www.w3.org/1999/xlink" width="252pt" height="230.4pt" viewBox="0 0 252 230.4" xmlns="http://www.w3.org/2000/svg" version="1.1">
 <metadata>
  <rdf:RDF xmlns:dc="http://purl.org/dc/elements/1.1/" xmlns:cc="http://creativecommons.org/ns#" xmlns:rdf="http://www.w3.org/1999/02/22-rdf-syntax-ns#">
   <cc:Work>
    <dc:type rdf:resource="http://purl.org/dc/dcmitype/StillImage"/>
    <dc:date>2025-01-31T12:59:39.153370</dc:date>
    <dc:format>image/svg+xml</dc:format>
    <dc:creator>
     <cc:Agent>
      <dc:title>Matplotlib v3.7.5, https://matplotlib.org/</dc:title>
     </cc:Agent>
    </dc:creator>
   </cc:Work>
  </rdf:RDF>
 </metadata>
 <defs>
  <style type="text/css">*{stroke-linejoin: round; stroke-linecap: butt}</style>
 </defs>
 <g id="figure_1">
  <g id="patch_1">
   <path d="M 0 230.4 
L 252 230.4 
L 252 0 
L 0 0 
z
" style="fill: #ffffff"/>
  </g>
  <g id="axes_1">
   <g id="patch_2">
    <path d="M 63 205.056 
L 226.8 205.056 
L 226.8 119.808 
L 63 119.808 
z
" style="fill: #ffffff"/>
   </g>
   <g id="line2d_1">
    <path d="M 63 119.808 
L 226.8 119.808 
" style="fill: none; stroke: #d3d3d3; stroke-linecap: square"/>
   </g>
   <g id="line2d_2">
    <path d="M 63 119.808 
L 226.8 119.808 
" style="fill: none; stroke: #d3d3d3; stroke-linecap: square"/>
   </g>
   <g id="matplotlib.axis_1">
    <g id="xtick_1">
     <g id="line2d_3">
      <defs>
       <path id="m6cee8ca859" d="M 0 0 
L 0 -3.5 
" style="stroke: #000000; stroke-width: 0.8"/>
      </defs>
      <g>
       <use xlink:href="#m6cee8ca859" x="79.38" y="205.056" style="stroke: #000000; stroke-width: 0.8"/>
      </g>
     </g>
     <g id="text_1">
      <!-- V1 -->
      <g transform="translate(72.778437 216.154438) scale(0.1 -0.1)">
       <defs>
        <path id="DejaVuSans-56" d="M 1831 0 
L 50 4666 
L 709 4666 
L 2188 738 
L 3669 4666 
L 4325 4666 
L 2547 0 
L 1831 0 
z
" transform="scale(0.015625)"/>
        <path id="DejaVuSans-31" d="M 794 531 
L 1825 531 
L 1825 4091 
L 703 3866 
L 703 4441 
L 1819 4666 
L 2450 4666 
L 2450 531 
L 3481 531 
L 3481 0 
L 794 0 
L 794 531 
z
" transform="scale(0.015625)"/>
       </defs>
       <use xlink:href="#DejaVuSans-56"/>
       <use xlink:href="#DejaVuSans-31" x="68.408203"/>
      </g>
     </g>
    </g>
    <g id="xtick_2">
     <g id="line2d_4">
      <g>
       <use xlink:href="#m6cee8ca859" x="112.14" y="205.056" style="stroke: #000000; stroke-width: 0.8"/>
      </g>
     </g>
     <g id="text_2">
      <!-- V2 -->
      <g transform="translate(105.538438 216.154438) scale(0.1 -0.1)">
       <defs>
        <path id="DejaVuSans-32" d="M 1228 531 
L 3431 531 
L 3431 0 
L 469 0 
L 469 531 
Q 828 903 1448 1529 
Q 2069 2156 2228 2338 
Q 2531 2678 2651 2914 
Q 2772 3150 2772 3378 
Q 2772 3750 2511 3984 
Q 2250 4219 1831 4219 
Q 1534 4219 1204 4116 
Q 875 4013 500 3803 
L 500 4441 
Q 881 4594 1212 4672 
Q 1544 4750 1819 4750 
Q 2544 4750 2975 4387 
Q 3406 4025 3406 3419 
Q 3406 3131 3298 2873 
Q 3191 2616 2906 2266 
Q 2828 2175 2409 1742 
Q 1991 1309 1228 531 
z
" transform="scale(0.015625)"/>
       </defs>
       <use xlink:href="#DejaVuSans-56"/>
       <use xlink:href="#DejaVuSans-32" x="68.408203"/>
      </g>
     </g>
    </g>
    <g id="xtick_3">
     <g id="line2d_5">
      <g>
       <use xlink:href="#m6cee8ca859" x="144.9" y="205.056" style="stroke: #000000; stroke-width: 0.8"/>
      </g>
     </g>
     <g id="text_3">
      <!-- V3 -->
      <g transform="translate(138.298438 216.154438) scale(0.1 -0.1)">
       <defs>
        <path id="DejaVuSans-33" d="M 2597 2516 
Q 3050 2419 3304 2112 
Q 3559 1806 3559 1356 
Q 3559 666 3084 287 
Q 2609 -91 1734 -91 
Q 1441 -91 1130 -33 
Q 819 25 488 141 
L 488 750 
Q 750 597 1062 519 
Q 1375 441 1716 441 
Q 2309 441 2620 675 
Q 2931 909 2931 1356 
Q 2931 1769 2642 2001 
Q 2353 2234 1838 2234 
L 1294 2234 
L 1294 2753 
L 1863 2753 
Q 2328 2753 2575 2939 
Q 2822 3125 2822 3475 
Q 2822 3834 2567 4026 
Q 2313 4219 1838 4219 
Q 1578 4219 1281 4162 
Q 984 4106 628 3988 
L 628 4550 
Q 988 4650 1302 4700 
Q 1616 4750 1894 4750 
Q 2613 4750 3031 4423 
Q 3450 4097 3450 3541 
Q 3450 3153 3228 2886 
Q 3006 2619 2597 2516 
z
" transform="scale(0.015625)"/>
       </defs>
       <use xlink:href="#DejaVuSans-56"/>
       <use xlink:href="#DejaVuSans-33" x="68.408203"/>
      </g>
     </g>
    </g>
    <g id="xtick_4">
     <g id="line2d_6">
      <g>
       <use xlink:href="#m6cee8ca859" x="177.66" y="205.056" style="stroke: #000000; stroke-width: 0.8"/>
      </g>
     </g>
     <g id="text_4">
      <!-- V4 -->
      <g transform="translate(171.058438 216.154438) scale(0.1 -0.1)">
       <defs>
        <path id="DejaVuSans-34" d="M 2419 4116 
L 825 1625 
L 2419 1625 
L 2419 4116 
z
M 2253 4666 
L 3047 4666 
L 3047 1625 
L 3713 1625 
L 3713 1100 
L 3047 1100 
L 3047 0 
L 2419 0 
L 2419 1100 
L 313 1100 
L 313 1709 
L 2253 4666 
z
" transform="scale(0.015625)"/>
       </defs>
       <use xlink:href="#DejaVuSans-56"/>
       <use xlink:href="#DejaVuSans-34" x="68.408203"/>
      </g>
     </g>
    </g>
    <g id="xtick_5">
     <g id="line2d_7">
      <g>
       <use xlink:href="#m6cee8ca859" x="210.42" y="205.056" style="stroke: #000000; stroke-width: 0.8"/>
      </g>
     </g>
     <g id="text_5">
      <!-- IT -->
      <g transform="translate(205.891094 216.154438) scale(0.1 -0.1)">
       <defs>
        <path id="DejaVuSans-49" d="M 628 4666 
L 1259 4666 
L 1259 0 
L 628 0 
L 628 4666 
z
" transform="scale(0.015625)"/>
        <path id="DejaVuSans-54" d="M -19 4666 
L 3928 4666 
L 3928 4134 
L 2272 4134 
L 2272 0 
L 1638 0 
L 1638 4134 
L -19 4134 
L -19 4666 
z
" transform="scale(0.015625)"/>
       </defs>
       <use xlink:href="#DejaVuSans-49"/>
       <use xlink:href="#DejaVuSans-54" x="29.492188"/>
      </g>
     </g>
    </g>
   </g>
   <g id="matplotlib.axis_2">
    <g id="ytick_1">
     <g id="line2d_8">
      <defs>
       <path id="mc3bfcdd9b6" d="M 0 0 
L 3.5 0 
" style="stroke: #000000; stroke-width: 0.8"/>
      </defs>
      <g>
       <use xlink:href="#mc3bfcdd9b6" x="63" y="205.056" style="stroke: #000000; stroke-width: 0.8"/>
      </g>
     </g>
     <g id="text_6">
      <!-- 0.0 -->
      <g transform="translate(43.596875 208.855219) scale(0.1 -0.1)">
       <defs>
        <path id="DejaVuSans-30" d="M 2034 4250 
Q 1547 4250 1301 3770 
Q 1056 3291 1056 2328 
Q 1056 1369 1301 889 
Q 1547 409 2034 409 
Q 2525 409 2770 889 
Q 3016 1369 3016 2328 
Q 3016 3291 2770 3770 
Q 2525 4250 2034 4250 
z
M 2034 4750 
Q 2819 4750 3233 4129 
Q 3647 3509 3647 2328 
Q 3647 1150 3233 529 
Q 2819 -91 2034 -91 
Q 1250 -91 836 529 
Q 422 1150 422 2328 
Q 422 3509 836 4129 
Q 1250 4750 2034 4750 
z
" transform="scale(0.015625)"/>
        <path id="DejaVuSans-2e" d="M 684 794 
L 1344 794 
L 1344 0 
L 684 0 
L 684 794 
z
" transform="scale(0.015625)"/>
       </defs>
       <use xlink:href="#DejaVuSans-30"/>
       <use xlink:href="#DejaVuSans-2e" x="63.623047"/>
       <use xlink:href="#DejaVuSans-30" x="95.410156"/>
      </g>
     </g>
    </g>
    <g id="ytick_2">
     <g id="line2d_9">
      <g>
       <use xlink:href="#mc3bfcdd9b6" x="63" y="162.432" style="stroke: #000000; stroke-width: 0.8"/>
      </g>
     </g>
     <g id="text_7">
      <!-- 0.5 -->
      <g transform="translate(43.596875 166.231219) scale(0.1 -0.1)">
       <defs>
        <path id="DejaVuSans-35" d="M 691 4666 
L 3169 4666 
L 3169 4134 
L 1269 4134 
L 1269 2991 
Q 1406 3038 1543 3061 
Q 1681 3084 1819 3084 
Q 2600 3084 3056 2656 
Q 3513 2228 3513 1497 
Q 3513 744 3044 326 
Q 2575 -91 1722 -91 
Q 1428 -91 1123 -41 
Q 819 9 494 109 
L 494 744 
Q 775 591 1075 516 
Q 1375 441 1709 441 
Q 2250 441 2565 725 
Q 2881 1009 2881 1497 
Q 2881 1984 2565 2268 
Q 2250 2553 1709 2553 
Q 1456 2553 1204 2497 
Q 953 2441 691 2322 
L 691 4666 
z
" transform="scale(0.015625)"/>
       </defs>
       <use xlink:href="#DejaVuSans-30"/>
       <use xlink:href="#DejaVuSans-2e" x="63.623047"/>
       <use xlink:href="#DejaVuSans-35" x="95.410156"/>
      </g>
     </g>
    </g>
    <g id="ytick_3">
     <g id="line2d_10">
      <g>
       <use xlink:href="#mc3bfcdd9b6" x="63" y="119.808" style="stroke: #000000; stroke-width: 0.8"/>
      </g>
     </g>
     <g id="text_8">
      <!-- 1.0 -->
      <g transform="translate(43.596875 123.607219) scale(0.1 -0.1)">
       <use xlink:href="#DejaVuSans-31"/>
       <use xlink:href="#DejaVuSans-2e" x="63.623047"/>
       <use xlink:href="#DejaVuSans-30" x="95.410156"/>
      </g>
     </g>
    </g>
    <g id="text_9">
     <!-- OII -->
     <g transform="translate(37.517187 169.317937) rotate(-90) scale(0.1 -0.1)">
      <defs>
       <path id="DejaVuSans-4f" d="M 2522 4238 
Q 1834 4238 1429 3725 
Q 1025 3213 1025 2328 
Q 1025 1447 1429 934 
Q 1834 422 2522 422 
Q 3209 422 3611 934 
Q 4013 1447 4013 2328 
Q 4013 3213 3611 3725 
Q 3209 4238 2522 4238 
z
M 2522 4750 
Q 3503 4750 4090 4092 
Q 4678 3434 4678 2328 
Q 4678 1225 4090 567 
Q 3503 -91 2522 -91 
Q 1538 -91 948 565 
Q 359 1222 359 2328 
Q 359 3434 948 4092 
Q 1538 4750 2522 4750 
z
" transform="scale(0.015625)"/>
      </defs>
      <use xlink:href="#DejaVuSans-4f"/>
      <use xlink:href="#DejaVuSans-49" x="78.710938"/>
      <use xlink:href="#DejaVuSans-49" x="108.203125"/>
     </g>
    </g>
   </g>
   <g id="LineCollection_1">
    <path d="M 79.38 171.151294 
L 79.38 164.133052 
" style="fill: none; stroke: #7f7f7f"/>
    <path d="M 112.14 161.328664 
L 112.14 151.867447 
" style="fill: none; stroke: #7f7f7f"/>
    <path d="M 144.9 167.100501 
L 144.9 150.39986 
" style="fill: none; stroke: #7f7f7f"/>
    <path d="M 177.66 170.757087 
L 177.66 152.817172 
" style="fill: none; stroke: #7f7f7f"/>
    <path d="M 210.42 192.346161 
L 210.42 166.325902 
" style="fill: none; stroke: #7f7f7f"/>
   </g>
   <g id="line2d_11">
    <defs>
     <path id="m2424c7a808" d="M 3 0 
L -3 -0 
" style="stroke: #7f7f7f"/>
    </defs>
    <g>
     <use xlink:href="#m2424c7a808" x="79.38" y="171.151294" style="fill: #7f7f7f; stroke: #7f7f7f"/>
     <use xlink:href="#m2424c7a808" x="112.14" y="161.328664" style="fill: #7f7f7f; stroke: #7f7f7f"/>
     <use xlink:href="#m2424c7a808" x="144.9" y="167.100501" style="fill: #7f7f7f; stroke: #7f7f7f"/>
     <use xlink:href="#m2424c7a808" x="177.66" y="170.757087" style="fill: #7f7f7f; stroke: #7f7f7f"/>
     <use xlink:href="#m2424c7a808" x="210.42" y="192.346161" style="fill: #7f7f7f; stroke: #7f7f7f"/>
    </g>
   </g>
   <g id="line2d_12">
    <g>
     <use xlink:href="#m2424c7a808" x="79.38" y="164.133052" style="fill: #7f7f7f; stroke: #7f7f7f"/>
     <use xlink:href="#m2424c7a808" x="112.14" y="151.867447" style="fill: #7f7f7f; stroke: #7f7f7f"/>
     <use xlink:href="#m2424c7a808" x="144.9" y="150.39986" style="fill: #7f7f7f; stroke: #7f7f7f"/>
     <use xlink:href="#m2424c7a808" x="177.66" y="152.817172" style="fill: #7f7f7f; stroke: #7f7f7f"/>
     <use xlink:href="#m2424c7a808" x="210.42" y="166.325902" style="fill: #7f7f7f; stroke: #7f7f7f"/>
    </g>
   </g>
   <g id="LineCollection_2">
    <path d="M 82.656 164.363792 
L 82.656 151.906464 
" style="fill: none; stroke: #aec7e8"/>
    <path d="M 115.416 163.684512 
L 115.416 144.758559 
" style="fill: none; stroke: #aec7e8"/>
    <path d="M 148.176 168.936558 
L 148.176 147.398109 
" style="fill: none; stroke: #aec7e8"/>
    <path d="M 180.936 154.481146 
L 180.936 109.755277 
" style="fill: none; stroke: #aec7e8"/>
    <path d="M 213.696 174.892739 
L 213.696 159.61997 
" style="fill: none; stroke: #aec7e8"/>
   </g>
   <g id="line2d_13">
    <defs>
     <path id="m1075d25423" d="M 3 0 
L -3 -0 
" style="stroke: #aec7e8"/>
    </defs>
    <g>
     <use xlink:href="#m1075d25423" x="82.656" y="164.363792" style="fill: #aec7e8; stroke: #aec7e8"/>
     <use xlink:href="#m1075d25423" x="115.416" y="163.684512" style="fill: #aec7e8; stroke: #aec7e8"/>
     <use xlink:href="#m1075d25423" x="148.176" y="168.936558" style="fill: #aec7e8; stroke: #aec7e8"/>
     <use xlink:href="#m1075d25423" x="180.936" y="154.481146" style="fill: #aec7e8; stroke: #aec7e8"/>
     <use xlink:href="#m1075d25423" x="213.696" y="174.892739" style="fill: #aec7e8; stroke: #aec7e8"/>
    </g>
   </g>
   <g id="line2d_14">
    <g>
     <use xlink:href="#m1075d25423" x="82.656" y="151.906464" style="fill: #aec7e8; stroke: #aec7e8"/>
     <use xlink:href="#m1075d25423" x="115.416" y="144.758559" style="fill: #aec7e8; stroke: #aec7e8"/>
     <use xlink:href="#m1075d25423" x="148.176" y="147.398109" style="fill: #aec7e8; stroke: #aec7e8"/>
     <use xlink:href="#m1075d25423" x="180.936" y="109.755277" style="fill: #aec7e8; stroke: #aec7e8"/>
     <use xlink:href="#m1075d25423" x="213.696" y="159.61997" style="fill: #aec7e8; stroke: #aec7e8"/>
    </g>
   </g>
   <g id="line2d_15">
    <defs>
     <path id="m63381a1b30" d="M 0 1.25 
C 0.331504 1.25 0.649475 1.118292 0.883883 0.883883 
C 1.118292 0.649475 1.25 0.331504 1.25 0 
C 1.25 -0.331504 1.118292 -0.649475 0.883883 -0.883883 
C 0.649475 -1.118292 0.331504 -1.25 0 -1.25 
C -0.331504 -1.25 -0.649475 -1.118292 -0.883883 -0.883883 
C -1.118292 -0.649475 -1.25 -0.331504 -1.25 0 
C -1.25 0.331504 -1.118292 0.649475 -0.883883 0.883883 
C -0.649475 1.118292 -0.331504 1.25 0 1.25 
z
" style="stroke: #7f7f7f"/>
    </defs>
    <g>
     <use xlink:href="#m63381a1b30" x="79.38" y="167.642173" style="fill: #7f7f7f; stroke: #7f7f7f"/>
     <use xlink:href="#m63381a1b30" x="112.14" y="156.598056" style="fill: #7f7f7f; stroke: #7f7f7f"/>
     <use xlink:href="#m63381a1b30" x="144.9" y="158.75018" style="fill: #7f7f7f; stroke: #7f7f7f"/>
     <use xlink:href="#m63381a1b30" x="177.66" y="161.78713" style="fill: #7f7f7f; stroke: #7f7f7f"/>
     <use xlink:href="#m63381a1b30" x="210.42" y="179.336031" style="fill: #7f7f7f; stroke: #7f7f7f"/>
    </g>
   </g>
   <g id="line2d_16">
    <defs>
     <path id="mef78655baf" d="M 0 1.25 
C 0.331504 1.25 0.649475 1.118292 0.883883 0.883883 
C 1.118292 0.649475 1.25 0.331504 1.25 0 
C 1.25 -0.331504 1.118292 -0.649475 0.883883 -0.883883 
C 0.649475 -1.118292 0.331504 -1.25 0 -1.25 
C -0.331504 -1.25 -0.649475 -1.118292 -0.883883 -0.883883 
C -1.118292 -0.649475 -1.25 -0.331504 -1.25 0 
C -1.25 0.331504 -1.118292 0.649475 -0.883883 0.883883 
C -0.649475 1.118292 -0.331504 1.25 0 1.25 
z
" style="stroke: #aec7e8"/>
    </defs>
    <g>
     <use xlink:href="#mef78655baf" x="82.656" y="158.135128" style="fill: #aec7e8; stroke: #aec7e8"/>
     <use xlink:href="#mef78655baf" x="115.416" y="154.221536" style="fill: #aec7e8; stroke: #aec7e8"/>
     <use xlink:href="#mef78655baf" x="148.176" y="158.167333" style="fill: #aec7e8; stroke: #aec7e8"/>
     <use xlink:href="#mef78655baf" x="180.936" y="132.118212" style="fill: #aec7e8; stroke: #aec7e8"/>
     <use xlink:href="#mef78655baf" x="213.696" y="167.256355" style="fill: #aec7e8; stroke: #aec7e8"/>
    </g>
   </g>
   <g id="patch_3">
    <path d="M 63 205.056 
L 63 119.808 
" style="fill: none; stroke: #000000; stroke-width: 0.8; stroke-linejoin: miter; stroke-linecap: square"/>
   </g>
   <g id="patch_4">
    <path d="M 63 205.056 
L 226.8 205.056 
" style="fill: none; stroke: #000000; stroke-width: 0.8; stroke-linejoin: miter; stroke-linecap: square"/>
   </g>
   <g id="line2d_17">
    <path d="M 79.38 167.642173 
L 112.14 156.598056 
L 144.9 158.75018 
L 177.66 161.78713 
L 210.42 179.336031 
" style="fill: none; stroke: #7f7f7f; stroke-linecap: square"/>
   </g>
   <g id="line2d_18">
    <path d="M 82.656 158.135128 
L 115.416 154.221536 
L 148.176 158.167333 
L 180.936 132.118212 
L 213.696 167.256355 
" style="fill: none; stroke: #aec7e8; stroke-linecap: square"/>
   </g>
  </g>
 </g>
</svg>
